<?xml version="1.0" ?><svg viewBox="0 0 512 512" xmlns="http://www.w3.org/2000/svg"><title/><g data-name="1" id="_1"><path d="M415,306H145a15,15,0,0,1-14.9-13.23L111.83,139c0-.13,0-.27,0-.41L107.68,104H69.13a15,15,0,1,1,0-30H121a15,15,0,0,1,14.9,13.23L140,122H441.13a15,15,0,0,1,14.79,17.51l-26.13,154A15,15,0,0,1,415,306ZM158.32,276h244l21-124H143.59Z"/><path d="M387.69,356H150.94a15,15,0,0,1-14.89-13.23l-15.49-130.3a15,15,0,1,1,29.79-3.54L164.27,326H387.69a15,15,0,1,1,0,30Z"/><path d="M183.19,448.16a42.5,42.5,0,1,1,42.5-42.5A42.55,42.55,0,0,1,183.19,448.16Zm0-55a12.5,12.5,0,1,0,12.5,12.5A12.51,12.51,0,0,0,183.19,393.16Z"/><path d="M349.9,448.16a42.5,42.5,0,1,1,42.5-42.5A42.55,42.55,0,0,1,349.9,448.16Zm0-55a12.5,12.5,0,1,0,12.5,12.5A12.51,12.51,0,0,0,349.9,393.16Z"/><path d="M290,152H192a15,15,0,0,1-15-15V64a15,15,0,0,1,15-15h98a15,15,0,0,1,15,15v73A15,15,0,0,1,290,152Zm-83-30h68V79H207Z"/><path d="M406.47,152H290a15,15,0,0,1-15-15V85.09a15,15,0,0,1,15-15H406.47a15,15,0,0,1,15,15V137A15,15,0,0,1,406.47,152ZM305,122h86.47V100.09H305Z"/></g></svg>